# xmcd
#
# Track frame offsets: 
#        150
#        30112
#        53732
#        80377
#        98630
#        119680
#        147762
#        162262
#        185725
#        209575
#
# Disc length: 3177 seconds
#
# Revision: 10
# Processed by: cddbd v1.5.2PL0 Copyright (c) Steve Scherf et al.
# Submitted via: ExactAudioCopyFreeDBPlugin 1.0
#
DISCID=820c670a
DTITLE=Leonard Cohen - Recent Songs
DYEAR=1979
DGENRE=Rock
TTITLE0=The Guests
TTITLE1=Humbled In Love
TTITLE2=The Window
TTITLE3=Came So Far For Beauty
TTITLE4=The Lost Canadian (Un Canadien Errant)
TTITLE5=The Traitor
TTITLE6=Our Lady Of Solitude
TTITLE7=The Gypsy's Wife
TTITLE8=The Smokey Life
TTITLE9=Ballad Of The Absent Mare
EXTD=
EXTT0=
EXTT1=
EXTT2=
EXTT3=
EXTT4=
EXTT5=
EXTT6=
EXTT7=
EXTT8=
EXTT9=
PLAYORDER=
